HIERARCHY
ROOT Hips
{
	OFFSET 0.00000 0.00000 0.00000
	CHANNELS 6 Xposition Yposition Zposition Zrotation Yrotation Xrotation 
	JOINT LHipJoint
	{
		OFFSET 0 0 0
		CHANNELS 3 Zrotation Yrotation Xrotation
		JOINT LeftUpLeg
		{
			OFFSET 1.58161 -1.81893 0.78828
			CHANNELS 3 Zrotation Yrotation Xrotation
			JOINT LeftLeg
			{
				OFFSET 2.53374 -6.96141 0.00000
				CHANNELS 3 Zrotation Yrotation Xrotation
				JOINT LeftFoot
				{
					OFFSET 2.63509 -7.23986 0.00000
					CHANNELS 3 Zrotation Yrotation Xrotation
					JOINT LeftToeBase
					{
						OFFSET 0.14115 -0.38781 2.05350
						CHANNELS 3 Zrotation Yrotation Xrotation
						End Site
						{
							OFFSET 0.00000 -0.00000 1.05543
						}
					}
				}
			}
		}
	}
	JOINT RHipJoint
	{
		OFFSET 0 0 0
		CHANNELS 3 Zrotation Yrotation Xrotation
		JOINT RightUpLeg
		{
			OFFSET -1.11138 -1.81893 0.78828
			CHANNELS 3 Zrotation Yrotation Xrotation
			JOINT RightLeg
			{
				OFFSET -2.58392 -7.09926 0.00000
				CHANNELS 3 Zrotation Yrotation Xrotation
				JOINT RightFoot
				{
					OFFSET -2.66423 -7.31992 0.00000
					CHANNELS 3 Zrotation Yrotation Xrotation
					JOINT RightToeBase
					{
						OFFSET -0.18831 -0.51739 2.12114
						CHANNELS 3 Zrotation Yrotation Xrotation
						End Site
						{
							OFFSET -0.00000 -0.00000 1.09845
						}
					}
				}
			}
		}
	}
	JOINT LowerBack
	{
		OFFSET 0 0 0
		CHANNELS 3 Zrotation Yrotation Xrotation
		JOINT Spine
		{
			OFFSET -0.01511 1.97958 -0.08829
			CHANNELS 3 Zrotation Yrotation Xrotation
			JOINT Spine1
			{
				OFFSET 0.08344 1.97334 -0.04330
				CHANNELS 3 Zrotation Yrotation Xrotation
				JOINT Neck
				{
					OFFSET 0 0 0
					CHANNELS 3 Zrotation Yrotation Xrotation
					JOINT Neck1
					{
						OFFSET 0.00559 1.76246 0.31246
						CHANNELS 3 Zrotation Yrotation Xrotation
						JOINT Head
						{
							OFFSET -0.07011 1.80354 -0.30524
							CHANNELS 3 Zrotation Yrotation Xrotation
							End Site
							{
								OFFSET -0.02385 1.83547 -0.13906
							}
						}
					}
				}
				JOINT LeftShoulder
				{
					OFFSET 0 0 0
					CHANNELS 3 Zrotation Yrotation Xrotation
					JOINT LeftArm
					{
						OFFSET 3.20667 1.30156 -0.60240
						CHANNELS 3 Zrotation Yrotation Xrotation
						JOINT LeftForeArm
						{
							OFFSET 4.95663 -0.00000 0.00000
							CHANNELS 3 Zrotation Yrotation Xrotation
							JOINT LeftHand
							{
								OFFSET 3.38177 -0.00000 0.00000
								CHANNELS 3 Zrotation Yrotation Xrotation
								JOINT LeftFingerBase
								{
									OFFSET 0 0 0
									CHANNELS 3 Zrotation Yrotation Xrotation
									JOINT LeftHandIndex1
									{
										OFFSET 0.66291 -0.00000 0.00000
										CHANNELS 3 Zrotation Yrotation Xrotation
										End Site
										{
											OFFSET 0.53445 -0.00000 0.00000
										}
									}
								}
								JOINT LThumb
								{
									OFFSET 0 0 0
									CHANNELS 3 Zrotation Yrotation Xrotation
									End Site
									{
										OFFSET 0.54261 -0.00000 0.54261
									}
								}
							}
						}
					}
				}
				JOINT RightShoulder
				{
					OFFSET 0 0 0
					CHANNELS 3 Zrotation Yrotation Xrotation
					JOINT RightArm
					{
						OFFSET -3.06877 1.34672 -0.60964
						CHANNELS 3 Zrotation Yrotation Xrotation
						JOINT RightForeArm
						{
							OFFSET -5.08365 -0.00000 0.00000
							CHANNELS 3 Zrotation Yrotation Xrotation
							JOINT RightHand
							{
								OFFSET -3.35984 -0.00000 0.00000
								CHANNELS 3 Zrotation Yrotation Xrotation
								JOINT RightFingerBase
								{
									OFFSET 0 0 0
									CHANNELS 3 Zrotation Yrotation Xrotation
									JOINT RightHandIndex1
									{
										OFFSET -0.82076 -0.00000 0.00000
										CHANNELS 3 Zrotation Yrotation Xrotation
										End Site
										{
											OFFSET -0.66172 -0.00000 0.00000
										}
									}
								}
								JOINT RThumb
								{
									OFFSET 0 0 0
									CHANNELS 3 Zrotation Yrotation Xrotation
									End Site
									{
										OFFSET -0.67182 -0.00000 0.67182
									}
								}
							}
						}
					}
				}
			}
		}
	}
}
MOTION
Frames: 6
Frame Time: .0083333
-10.3994 17.9015 5.6928 0 0 0 0 0 0 -21 0 0 0 0 0 0 0 0 0 0 0 0 0 0 21 0 0 0 0 0 0 0 0 0 0 0 0 0 0 0 0 0 0 0 0 0 0 -16 0 0 21 0 0 11 0 0 0 -8 0 0 0 0 0 0 0 0 0 0 0 0 0 0 0 0 0 0 0 0 8 0 0 0 0 0 0 0 0 0 0 0 0 0 0 0 0 0
-10.3994 17.9015 5.6928 -61.8482 85.2319 -46.5491 0.0000 0.0000 0.0000 -7.2231 -4.5498 -30.1385 2.5373 9.9054 28.6709 0.3323 -4.7264 -10.2911 0.6604 -5.1976 -14.4730 0.0000 0.0000 0.0000 15.1953 8.4482 -31.0671 -2.5208 -9.8757 28.5750 -0.2404 0.8099 -9.0105 -0.0054 -0.4740 1.3024 -1.0453 1.1593 4.0239 4.2977 1.6261 5.7631 5.0385 0.7611 3.5504 1.8313 -1.5585 -13.4247 -3.7798 1.0308 42.1912 -1.7010 0.8443 17.9876 0.0000 0.0000 0.0000 -101.0812 -21.6596 72.8159 20.2104 -30.8950 -5.6390 -0.0000 0.0000 -50.0735 9.3701 55.1906 7.7157 -7.1250 0.0000 -0.0000 -76.0291 75.2342 -60.7826 0.0000 0.0000 0.0000 96.2571 20.1634 60.6566 -19.8871 30.5061 -5.4739 0.0000 -0.0000 -40.4194 -28.5680 -8.7001 4.7084 7.1250 -0.0000 -0.0000 -1.4631 -39.8595 -0.1854
-10.3973 17.9006 5.6924 -61.9282 85.2258 -46.6142 0.0000 0.0000 0.0000 -7.1101 -4.7341 -30.0363 2.5430 9.9156 28.7039 0.3332 -4.8341 -10.3132 0.5391 -4.7043 -13.0671 0.0000 0.0000 0.0000 15.2132 8.4120 -31.1166 -2.5286 -9.8898 28.6205 -0.2405 0.8208 -9.0090 -0.0022 -0.3031 0.8327 -1.0975 1.1636 4.0038 4.3144 1.6307 5.7696 5.0865 0.7608 3.5667 1.8114 -1.5555 -13.3859 -3.7420 1.0232 42.1642 -1.6801 0.8426 17.9602 -0.0000 -0.0000 0.0000 -101.1392 -21.6702 72.7203 20.1910 -30.8718 -5.6290 -0.0000 0.0000 -49.9737 9.1296 55.0837 7.5069 -7.1250 0.0000 -0.0000 -75.6854 75.1284 -60.3333 -0.0000 -0.0000 0.0000 96.1834 20.1804 60.7785 -19.8969 30.5179 -5.4789 0.0000 -0.0000 -40.5675 -28.6117 -8.6460 4.6879 7.1250 -0.0000 -0.0000 -1.5041 -39.8020 -0.1928
-10.3946 17.8984 5.6927 -61.6380 85.2309 -46.3132 0.0000 0.0000 0.0000 -7.1324 -4.7498 -29.9808 2.5448 9.9190 28.7147 0.3382 -4.8196 -10.3870 0.5424 -4.7187 -13.1079 0.0000 0.0000 0.0000 15.1874 8.4075 -31.1403 -2.5301 -9.8924 28.6291 -0.2431 0.8548 -9.0495 -0.0039 -0.4011 1.1021 -1.1739 1.1817 3.9749 4.3273 1.6530 5.7707 5.1441 0.7683 3.5800 1.8071 -1.5528 -13.3980 -3.7612 1.0516 42.2320 -1.6843 0.8539 18.0059 -0.0000 -0.0000 0.0000 -101.2069 -21.6575 72.7102 20.1884 -30.8687 -5.6277 -0.0000 0.0000 -49.9227 9.2922 55.0967 7.6426 -7.1250 0.0000 -0.0000 -75.6932 75.1904 -60.4109 -0.0000 -0.0000 0.0000 96.1099 20.1852 60.8245 -19.9169 30.5421 -5.4891 0.0000 -0.0000 -40.7333 -28.5546 -8.6408 4.6740 7.1250 -0.0000 -0.0000 -1.4543 -39.7912 -0.1868
-10.3933 17.8996 5.6922 -61.8205 85.2152 -46.4943 0.0000 0.0000 0.0000 -7.0611 -4.8819 -29.9877 2.5477 9.9241 28.7312 0.3370 -4.7851 -10.3663 0.5022 -4.5428 -12.6091 0.0000 0.0000 0.0000 15.1943 8.4626 -31.1232 -2.5325 -9.8967 28.6429 -0.2481 0.8079 -9.1563 -0.0066 -0.5255 1.4439 -1.1424 1.1879 4.0025 4.3107 1.6621 5.7571 5.1073 0.7749 3.5504 1.8719 -1.5502 -13.4189 -3.8077 1.0669 42.3003 -1.7165 0.8670 18.0537 0.0000 0.0000 0.0000 -101.1926 -21.6342 72.6985 20.1852 -30.8648 -5.6260 -0.0000 0.0000 -49.9162 9.4883 55.2299 7.8173 -7.1250 0.0000 -0.0000 -76.1502 75.2838 -60.9550 0.0000 0.0000 0.0000 96.1037 20.1511 60.8421 -19.9623 30.5969 -5.5121 0.0000 -0.0000 -40.8931 -28.5403 -8.6848 4.6948 7.1250 -0.0000 -0.0000 -1.4396 -39.8397 -0.1832
-10.3921 17.8980 5.6943 -61.2264 85.0374 -45.9127 0.0000 0.0000 0.0000 -7.0205 -4.6173 -30.1183 2.5482 9.9250 28.7340 0.3356 -4.6426 -10.3327 0.6016 -4.9650 -13.8088 0.0000 0.0000 0.0000 15.3136 8.6319 -31.0643 -2.5337 -9.8989 28.6501 -0.2496 0.7907 -9.1890 -0.0088 -0.6069 1.6678 -1.0469 1.2725 4.0476 4.2948 1.7771 5.7470 5.0328 0.8374 3.5058 1.9411 -1.5784 -13.3735 -3.8052 1.0063 42.3126 -1.7385 0.8563 18.0452 0.0000 0.0000 0.0000 -101.1095 -21.5905 72.8000 20.1990 -30.8813 -5.6331 -0.0000 0.0000 -49.9712 9.2959 55.2375 7.6586 -7.1250 0.0000 -0.0000 -76.2246 75.2142 -60.9478 0.0000 0.0000 0.0000 96.2134 20.1366 60.6409 -19.9277 30.5551 -5.4945 0.0000 -0.0000 -40.8403 -28.6003 -8.5731 4.6466 7.1250 -0.0000 -0.0000 -1.4976 -39.7186 -0.1950
